<svg xmlns="http://www.w3.org/2000/svg" viewBox="0 0 298.76 176.86"><defs><style>.cls-1{fill:#fff;}</style></defs><title>packs</title><g id="Capa_2" data-name="Capa 2"><g id="Capa_1-2" data-name="Capa 1"><path class="cls-1" d="M293.07,17.23l-29.4,116.7a2.89,2.89,0,0,1-2.8,2.18H62.69a2.89,2.89,0,0,1-2.8-2.18L30.49,17.23A2.89,2.89,0,0,0,27.69,15h0a2.89,2.89,0,0,0-2.8,3.61L56.23,140.1a2.89,2.89,0,0,0,2.8,2.17h205.5a2.89,2.89,0,0,0,2.8-2.17L298.67,18.66a2.89,2.89,0,0,0-2.8-3.61h0A2.89,2.89,0,0,0,293.07,17.23Z"/><path class="cls-1" d="M219.57,27a25.77,25.77,0,0,0-23.9,16.15A49.4,49.4,0,0,0,111.8,78.59c0,1.11.05,2.22.12,3.31a25.78,25.78,0,1,0,16.23,33.41,49.41,49.41,0,0,0,82.48-36.72c0-.55,0-1.09,0-1.64a25.77,25.77,0,1,0,9-49.92Zm-113.1,90.41v4.19h-4v-4.07a12.24,12.24,0,0,1-6-1.73l.95-2.63a10.49,10.49,0,0,0,5.66,1.69c2.79,0,4.68-1.61,4.68-3.85s-1.53-3.5-4.44-4.68c-4-1.57-6.64-3.38-6.64-6.8,0-3.26,3.79-5.74,5.79-6.33v-4.6h4v4.44a9,9,0,0,1,4.48,1.38L109.65,97a10.22,10.22,0,0,0-5.11-1.34c-3,0-4.24,1.81-4.24,3.38,0,2,1.42,3.07,4.83,4.48,4,1.65,6.82,3.69,6.82,7.19C112,113.87,108.47,116.77,106.47,117.44Zm59-17.73v7.92h-6V99.94c-4-.08-9.44-1.43-12.08-3.32l1.53-5a19.6,19.6,0,0,0,10.71,3.24c5.35,0,8.9-3.09,8.9-7.38,0-4.14-3-6.7-8.55-9-7.68-3-12.16-6.48-12.16-13,0-6.25,5.65-11,11.65-12.13V45.63h6V53a17.78,17.78,0,0,1,8.84,2.64l-2.36,5a19.3,19.3,0,0,0-9.73-2.56c-5.8,0-8.1,3.46-8.1,6.48,0,3.92,2.73,5.88,9.28,8.59,7.76,3.16,12.83,7.08,12.83,13.79C176.23,92.86,171.47,98.44,165.47,99.72Zm58-35.88v4.8h-4V64c-2,0-5.33-.75-6.7-1.73l.6-2.63a9.88,9.88,0,0,0,5.49,1.69c2.79,0,4.59-1.61,4.59-3.85s-1.58-3.5-4.48-4.68c-4-1.57-6-3.38-6-6.8,0-3.26,4.47-5.74,6.47-6.33v-4h4v3.83a6.41,6.41,0,0,1,3.77,1.38l-1.65,2.59a11.06,11.06,0,0,0-5.29-1.34c-3,0-4.33,1.81-4.33,3.38,0,2,1.37,3.07,4.79,4.48,4,1.65,7.5,3.69,7.5,7.19C228.27,60.26,225.47,63.17,223.47,63.83Z"/><path class="cls-1" d="M89.7,148.35A14.25,14.25,0,1,0,104,162.6,14.25,14.25,0,0,0,89.7,148.35Zm0,24.33A10.08,10.08,0,1,1,99.78,162.6,10.08,10.08,0,0,1,89.7,172.68Z"/><path class="cls-1" d="M234.49,148.35a14.25,14.25,0,1,0,14.25,14.25A14.25,14.25,0,0,0,234.49,148.35Zm0,24.33a10.08,10.08,0,1,1,10.08-10.08A10.08,10.08,0,0,1,234.49,172.68Z"/><circle class="cls-1" cx="15.05" cy="15.05" r="15.05"/></g></g></svg>