<svg xmlns="http://www.w3.org/2000/svg" viewBox="0 0 295.82 225.01"><defs><style>.cls-1{fill:#fff;}</style></defs><title>trayectoria</title><g id="Capa_2" data-name="Capa 2"><g id="Capa_1-2" data-name="Capa 1"><polyline class="cls-1" points="192.65 86.39 197.07 81.34 197.22 81.18 196.98 81.4"/><polyline class="cls-1" points="197.94 80.5 197.53 80.89 197.66 80.77 204.32 75.53"/><path class="cls-1" d="M272.3,147.34l-21-22.11,38.23-30a17.75,17.75,0,0,1,3,23.87Z"/><path class="cls-1" d="M261,158.46,230.47,178a17.78,17.78,0,0,1-23.71-4.17l33-37.83Z"/><path class="cls-1" d="M286.8,174.1a7.89,7.89,0,0,1-11.06-.15L192.63,86.39l4.43-5.06.16-.16.31-.29.16-.14,6.53-5.14,83,87.45A7.89,7.89,0,0,1,286.8,174.1Z"/><polygon class="cls-1" points="197.08 81.3 197.07 81.29 197.02 81.25 197.34 81 197.51 80.87 197.2 81.16 197.08 81.3"/><path class="cls-1" d="M213.89,85.8l-9.68-10.2L220,63.24a8.9,8.9,0,0,1,1.49,12Z"/><polygon class="cls-1" points="197.65 80.76 197.51 80.87 197.2 81.16 197.34 81 197.6 80.69 197.64 80.74 197.65 80.76"/><path class="cls-1" d="M202.62,96.92l-12.31,7.87a8.93,8.93,0,0,1-11.9-2.08l14.22-16.32Z"/><path class="cls-1" d="M59.38,9l-3.84,8.57c3,1.49,6.15,3.17,9.49,5L68.88,14C65.53,12.16,62.34,10.49,59.38,9Zm82.34,144.09a80.56,80.56,0,0,1-2.51,8.09l9,2.83a88.81,88.81,0,0,0,2.8-9.17ZM74.24,215.61c-.86,0-1.71,0-2.59-.06C40.32,214,17,184.58,11,157.67a68,68,0,0,1-1.29-8L.26,149.5a77.53,77.53,0,0,0,1.57,10.22c6.78,30.29,33.4,63.44,69.36,65.21,1,0,2.05.08,3.07.08,36.38,0,60.83-32,70.94-53.86l-9-2.85C126.84,187.89,105.38,215.63,74.24,215.61Zm78.1-101c-4.21-26.73-18.75-48.59-36.1-65.78a111.48,111.48,0,0,1,21.27,2.75l2.28-9.1a119.89,119.89,0,0,0-33.62-2.9c-4.93-4.19-10-8.05-14.94-11.56l-5.81,7.3c2.59,1.82,5.21,3.73,7.8,5.74a108.28,108.28,0,0,0-29.06,9.38c-28.06,13.75-54.37,41.74-62,74l9.29,1.28c7.11-29,31.19-54.34,56.81-66.88a99.47,99.47,0,0,1,34.77-9.66c19,16.86,35.62,39.07,40,66.85a94,94,0,0,1,.2,29.45l9.24,1.75A103.72,103.72,0,0,0,152.34,114.63ZM.75,132.09A78.4,78.4,0,0,0,0,141.78l9.37.18a67.8,67.8,0,0,1,.66-8.6ZM165.31,51.3l-3.84,8.57c3.39,1.58,6.74,3.36,10,5.28l5.08-7.9Q171.06,54,165.31,51.3Zm17.85,10.14-5.07,7.9c2.52,1.73,5,3.54,7.43,5.48l5.86-7.35Q187.37,64.28,183.16,61.44Zm-35.81-17-2.28,9.11q4.65,1.39,9.21,3.18l3.84-8.57Q152.8,46.07,147.36,44.48ZM75.69,18l-3.84,8.58c2.31,1.38,4.68,2.86,7.07,4.42l5.83-7.35C81.67,21.59,78.63,19.7,75.69,18ZM39.28,0,35.95,8.78c1.83.69,6.35,2.48,12.55,5.36l3.84-8.56C45.89,2.58,41.21.73,39.28,0Z"/></g></g></svg>